<svg width="20" height="20" viewBox="0 0 20 20" fill="none" xmlns="http://www.w3.org/2000/svg">
<path fill-rule="evenodd" clip-rule="evenodd" d="M10 20C15.5225 20 20 15.5225 20 10C20 4.47754 15.5225 0 10 0C4.47754 0 0 4.47754 0 10C0 15.5225 4.47754 20 10 20ZM7.82617 6.00586C7.7373 6.00195 7.64551 6 7.55176 6H4V13.542H7.63281C7.95801 13.542 8.2832 13.4873 8.6084 13.4053C8.93457 13.3232 9.23242 13.1865 9.47656 13.0225C9.7207 12.8594 9.9375 12.6133 10.0732 12.3398C10.208 12.0664 10.29 11.7383 10.29 11.3555C10.29 10.8916 10.1543 10.4814 9.9375 10.1533C9.7207 9.8252 9.36816 9.58008 8.90723 9.44336C9.12012 9.33594 9.31055 9.2041 9.46191 9.05762C9.54199 8.98047 9.61035 8.89941 9.66602 8.81445C9.85645 8.56836 9.9375 8.24121 9.9375 7.8584C9.9375 7.53027 9.88281 7.22949 9.77441 6.9834C9.66602 6.73828 9.50391 6.54688 9.28711 6.41016C9.06934 6.27344 8.82617 6.16406 8.52734 6.10938C8.30859 6.04883 8.07422 6.01758 7.82617 6.00586ZM7.70898 9.0127C7.5957 9.04395 7.4707 9.06055 7.33496 9.06055H5.65332V7.28418H7.22656C7.38867 7.28418 7.52441 7.28418 7.66016 7.31152C7.75293 7.33008 7.83301 7.36133 7.90918 7.39648L8.0127 7.44824C8.12109 7.53027 8.20215 7.6123 8.25684 7.72168C8.31055 7.83105 8.33789 7.99512 8.33789 8.15918C8.33789 8.45898 8.25684 8.70508 8.06641 8.8418C7.96289 8.91602 7.84375 8.97461 7.70898 9.0127ZM7.87695 12.2305C7.74121 12.2578 7.5791 12.2852 7.41602 12.2852H5.65332V10.1807H7.44336C7.7959 10.1807 8.09375 10.2627 8.31055 10.4268C8.47754 10.5742 8.58008 10.7695 8.61816 11.0254C8.62988 11.1025 8.63574 11.1855 8.63574 11.2744C8.63574 11.3447 8.62891 11.4121 8.61621 11.4756C8.5957 11.583 8.56152 11.6797 8.52734 11.7656C8.44629 11.9023 8.36523 11.9844 8.25684 12.0664C8.14844 12.1484 8.0127 12.2031 7.87695 12.2305ZM13.624 12.5859C13.1904 12.5859 12.8652 12.4766 12.6484 12.2578C12.4316 12.0391 12.2686 11.6289 12.2686 11.1924H16.2002C16.2158 10.9336 16.2129 10.6934 16.1963 10.4609C16.1855 10.3018 16.168 10.1455 16.1455 9.98926C16.0371 9.60742 15.875 9.25195 15.6572 8.95117C15.4404 8.62305 15.1699 8.4043 14.8174 8.21387C14.4648 8.02246 14.0586 7.94043 13.5977 7.94043C13.1631 7.94043 12.8115 8.02246 12.459 8.15918C12.3457 8.20605 12.2354 8.26367 12.1299 8.3291C11.9316 8.45117 11.75 8.59961 11.5908 8.75977C11.3467 9.0332 11.1572 9.33398 11.0215 9.68945C10.8857 10.0439 10.832 10.4268 10.832 10.8369C10.832 10.9512 10.8359 11.0625 10.8438 11.1699C10.8652 11.4727 10.9209 11.749 11.0215 12.0117C11.1299 12.3672 11.3203 12.668 11.5635 12.9131C11.8076 13.1865 12.0791 13.3779 12.4316 13.5146C12.7842 13.6514 13.1631 13.7334 13.5977 13.7334C14.2207 13.7334 14.7363 13.5693 15.1699 13.2959C15.6035 12.9951 15.9287 12.5312 16.1455 11.875H14.8174C14.7627 12.0391 14.6279 12.2031 14.4102 12.3672C14.1934 12.5039 13.9229 12.5859 13.624 12.5859ZM13.5156 9.08789C13.8682 9.08789 14.167 9.19727 14.3564 9.38867C14.5459 9.58008 14.6816 9.85254 14.7363 10.2627H12.2959C12.2959 10.1719 12.3145 10.0811 12.3359 9.97461L12.3506 9.90723C12.377 9.77148 12.4316 9.63477 12.54 9.52539C12.6172 9.44824 12.6943 9.37109 12.79 9.30371C12.8291 9.27539 12.8721 9.24902 12.9199 9.22461C13.082 9.14258 13.2715 9.08789 13.5156 9.08789ZM15.0068 6.51953H11.9707V7.25684H15.0068V6.51953Z" fill="white"/>
</svg>
