<svg width="20" height="20" viewBox="0 0 20 20" fill="none" xmlns="http://www.w3.org/2000/svg">
<path fill-rule="evenodd" clip-rule="evenodd" d="M10 20C15.5228 20 20 15.5228 20 10C20 4.47715 15.5228 0 10 0C4.47715 0 0 4.47715 0 10C0 15.5228 4.47715 20 10 20ZM8.2 10C8.2 9.00586 9.00557 8.2 10 8.2C10.9941 8.2 11.8 9.00562 11.8 10C11.8 10.9941 10.9944 11.8 10 11.8C9.00587 11.8 8.2 10.9944 8.2 10ZM13 10C13 8.34226 11.6562 7 10 7C8.34226 7 7 8.34372 7 10C7 11.6577 8.34371 13 10 13C11.6577 13 13 11.6563 13 10ZM13.15 7.5995C13.5635 7.5995 13.9 7.26356 13.9 6.84949C13.9 6.43594 13.563 6.09948 13.15 6.1C12.7364 6.1 12.4 6.43594 12.4 6.84949C12.4 7.26304 12.7359 7.5995 13.15 7.5995ZM7.58277 5.23468C8.27332 5.20393 8.51531 5.2 10 5.2C11.5233 5.2 11.7549 5.20363 12.4173 5.23469C12.8868 5.25638 13.2022 5.31972 13.4957 5.43365C13.7564 5.53416 13.9432 5.65429 14.1444 5.85553C14.3444 6.05581 14.4654 6.24423 14.5662 6.50391C14.6797 6.79689 14.7432 7.11344 14.7653 7.58282C14.796 8.27333 14.8 8.51531 14.8 10C14.8 11.5233 14.7963 11.7549 14.7653 12.4173C14.7437 12.8859 14.6802 13.2015 14.5658 13.497C14.4661 13.7556 14.3456 13.9431 14.1438 14.1451C13.9445 14.3441 13.7556 14.4654 13.4956 14.5664C13.2025 14.6798 12.8864 14.7433 12.4172 14.7653C11.7267 14.796 11.4847 14.8 10 14.8C8.47663 14.8 8.24512 14.7963 7.58268 14.7653C7.1143 14.7437 6.79912 14.6803 6.50253 14.5656C6.24448 14.466 6.05659 14.3453 5.85489 14.1438C5.65571 13.9446 5.53487 13.7564 5.43361 13.4956C5.32013 13.2033 5.25677 12.8874 5.23467 12.4172C5.20393 11.7267 5.2 11.4847 5.2 10C5.2 8.47663 5.20363 8.24512 5.23468 7.58269C5.25637 7.11287 5.31963 6.79799 5.43365 6.5043C5.53423 6.24378 5.65461 6.05644 5.85552 5.85553C6.05566 5.65539 6.24351 5.53479 6.50391 5.4338C6.79693 5.32004 7.1123 5.25677 7.58277 5.23468ZM12.4735 4.036C11.8335 4.006 11.63 4 10 4C8.36999 4 8.16649 4.0075 7.5265 4.036C6.8875 4.066 6.4525 4.1665 6.07 4.315C5.6755 4.468 5.34049 4.6735 5.007 5.007C4.6735 5.3405 4.4675 5.675 4.315 6.07C4.1665 6.4525 4.0655 6.8875 4.036 7.5265C4.006 8.1665 4 8.37 4 10C4 11.63 4.0075 11.8335 4.036 12.4735C4.066 13.112 4.1665 13.5475 4.315 13.93C4.468 14.324 4.6735 14.6595 5.007 14.993C5.34049 15.326 5.67499 15.5325 6.07 15.685C6.453 15.833 6.888 15.9345 7.5265 15.964C8.16649 15.994 8.36999 16 10 16C11.63 16 11.8335 15.9925 12.4735 15.964C13.112 15.934 13.5475 15.833 13.93 15.685C14.324 15.532 14.6595 15.326 14.993 14.993C15.326 14.6595 15.5325 14.3255 15.685 13.93C15.833 13.5475 15.9345 13.112 15.964 12.4735C15.994 11.8335 16 11.63 16 10C16 8.37 15.9925 8.1665 15.964 7.5265C15.934 6.888 15.833 6.452 15.685 6.07C15.532 5.6755 15.326 5.3405 14.993 5.007C14.6595 4.6735 14.3255 4.4675 13.93 4.315C13.5475 4.1665 13.112 4.0655 12.4735 4.036Z" fill="white"/>
</svg>
