<svg width="25" height="25" viewBox="0 0 25 25" fill="none" xmlns="http://www.w3.org/2000/svg">
<g clip-path="url(#clip0_2907_4095)">
<path d="M12.4779 0.99707C6.07576 0.99707 0.867188 6.20564 0.867188 12.6077C0.867188 19.0094 6.07576 24.2184 12.4779 24.2184C18.8795 24.2184 24.0885 19.0094 24.0885 12.6077C24.0885 6.20564 18.8804 0.99707 12.4779 0.99707ZM17.6574 9.95037C17.6626 10.0654 17.6654 10.1814 17.6654 10.2974C17.6654 13.8289 14.9781 17.8996 10.0613 17.8996C8.55214 17.8996 7.14722 17.4585 5.96492 16.7C6.17397 16.7247 6.38677 16.7374 6.60237 16.7374C7.85482 16.7374 9.00673 16.3099 9.92151 15.5934C8.75231 15.5719 7.76503 14.7993 7.42502 13.7372C7.58778 13.7681 7.75568 13.7854 7.92731 13.7854C8.17098 13.7854 8.40762 13.7536 8.63164 13.6923C7.40912 13.4472 6.48826 12.3674 6.48826 11.0719C6.48826 11.0607 6.48826 11.049 6.48873 11.0382C6.84884 11.2379 7.26087 11.3586 7.69862 11.3721C6.98213 10.8937 6.51024 10.0752 6.51024 9.1483C6.51024 8.65817 6.64166 8.1989 6.87176 7.80418C8.18922 9.42143 10.1591 10.4849 12.3796 10.5972C12.3338 10.4012 12.3109 10.1978 12.3109 9.98779C12.3109 8.51225 13.5072 7.31545 14.9828 7.31545C15.7516 7.31545 16.4452 7.64003 16.9335 8.15915C17.5429 8.03943 18.1134 7.81774 18.6312 7.51048C18.43 8.13483 18.0077 8.65817 17.4545 8.98929C17.9956 8.92475 18.5119 8.78164 18.9894 8.56884C18.633 9.10387 18.1798 9.57483 17.6574 9.95037Z" fill="white"/>
</g>
<defs>
<clipPath id="clip0_2907_4095">
<rect width="23.2213" height="23.2213" fill="white" transform="translate(0.867188 0.99707)"/>
</clipPath>
</defs>
</svg>
